Coordinates
version=1
nRows=18
nColumns=38
inDegrees=yes

Units are S.I. units (second, meters, Newtons, ...)
Angles are in degrees.

endheader
time	pelvis_tilt	pelvis_list	pelvis_rotation	pelvis_tx	pelvis_ty	pelvis_tz	hip_flexion_r	hip_adduction_r	hip_rotation_r	knee_angle_r	ankle_angle_r	subtalar_angle_r	mtp_angle_r	hip_flexion_l	hip_adduction_l	hip_rotation_l	knee_angle_l	ankle_angle_l	subtalar_angle_l	mtp_angle_l	lumbar_extension	lumbar_bending	lumbar_rotation	arm_flex_r	arm_add_r	arm_rot_r	elbow_flex_r	pro_sup_r	wrist_flex_r	wrist_dev_r	arm_flex_l	arm_add_l	arm_rot_l	elbow_flex_l	pro_sup_l	wrist_flex_l	wrist_dev_l
      3.78000000	     -0.09894705	      1.75537701	      7.77924228	     -0.08597514	      0.89688353	     -0.23017919	     28.03939427	     -1.88574531	    -11.63644302	    -14.78253860	     -0.05426607	     -2.26516927	      9.30570133	    -16.12079446	      1.80251362	      7.29011667	    -19.29689496	     10.08920313	     10.84299977	     14.49463585	     -6.28856693	     -0.16997275	    -10.47312236	     -8.87552995	    -14.62191438	     12.75864239	     11.94634357	     86.51662706	      0.00000000	      0.00000000	      1.44153019	    -16.87878588	     18.89600316	     27.66353986	     85.94366927	      0.00000000	      0.00000000
      3.79000000	     -0.04377311	      1.49171525	      7.86567502	     -0.07047986	      0.89537955	     -0.22958089	     27.82086020	     -1.42646359	    -11.22568184	    -16.01828363	     -1.38700322	     -4.06751505	      9.23984425	    -16.30895574	      1.24773359	      6.75179370	    -20.60665828	      8.69595164	     11.74007083	     16.97286681	     -5.98280432	      0.18832904	    -10.50512593	     -9.04469560	    -14.66376319	     13.16840384	     11.72370885	     86.51662706	      0.00000000	      0.00000000	      1.00645435	    -16.68170201	     18.97310012	     27.16723804	     85.94366927	      0.00000000	      0.00000000
      3.80000000	     -0.00184260	      1.12265824	      7.89579880	     -0.05486092	      0.89392218	     -0.22882727	     27.66809604	     -0.83750141	    -10.77677213	    -17.21577711	     -2.99767887	     -5.82027130	      9.12207364	    -16.34507951	      0.59177780	      6.11870466	    -22.07334988	      6.96722125	     12.60243506	     19.59762621	     -5.62721590	      0.66575301	    -10.44942101	     -9.23049036	    -14.73123924	     13.53138834	     11.55022931	     86.51662706	      0.00000000	      0.00000000	      0.55038296	    -16.44944953	     19.01837450	     26.64854951	     85.94366927	      0.00000000	      0.00000000
      3.81000000	      0.03687054	      0.63152266	      7.86787760	     -0.03927456	      0.89275823	     -0.22786524	     27.60071328	     -0.12533321	    -10.28869406	    -18.41575086	     -4.73253199	     -7.42222552	      8.95371696	    -16.20547585	     -0.17262152	      5.40874269	    -23.71929398	      4.84862699	     13.37892183	     22.24136361	     -5.24794804	      1.27346415	    -10.30072223	     -9.40882430	    -14.82378856	     13.84358124	     11.41985288	     86.51662706	      0.00000000	      0.00000000	      0.09440679	    -16.18081859	     19.03649098	     26.10261525	     85.94366927	      0.00000000	      0.00000000
      3.82000000	      0.07404973	      0.02058508	      7.78407898	     -0.02386561	      0.89207143	     -0.22675441	     27.60658970	      0.70314043	     -9.76063157	    -19.68250001	     -6.39950510	     -8.80261218	      8.74226823	    -15.87073110	     -1.03587991	      4.65354706	    -25.56204841	      2.30649097	     14.01385158	     24.75204976	     -4.87133548	      2.00625910	    -10.06467045	     -9.55502972	    -14.94128137	     14.10249208	     11.32872290	     86.51662706	      0.00000000	      0.00000000	     -0.34698995	    -15.87847011	     19.03456947	     25.52737570	     85.94366927	      0.00000000	      0.00000000
      3.83000000	      0.11128117	     -0.68595306	      7.64789801	     -0.00866363	      0.89185117	     -0.22561177	     27.65551166	      1.63729748	     -9.20458160	    -21.05256691	     -7.80389537	     -9.92266154	      8.49682670	    -15.33132020	     -1.97210823	      3.89720248	    -27.61362863	     -0.65509068	     14.45100336	     26.96763800	     -4.52009064	      2.84086024	     -9.75609839	     -9.64798366	    -15.08318692	     14.30668114	     11.27639658	     86.51662706	      0.00000000	      0.00000000	     -0.76643159	    -15.54914189	     19.02257676	     24.92385049	     85.94366927	      0.00000000	      0.00000000
      3.84000000	      0.15309847	     -1.44992747	      7.46287140	      0.00636099	      0.89191506	     -0.22449269	     27.71007062	      2.65578668	     -8.65023157	    -22.50254631	     -8.78521786	    -10.77087904	      8.22406628	    -14.59015587	     -2.94546873	      3.19283168	    -29.88015027	     -3.97957663	     14.63857899	     28.73455782	     -4.21183136	      3.74026261	     -9.39581164	     -9.67297094	    -15.24751471	     14.45541860	     11.26644513	     86.51662706	      0.00000000	      0.00000000	     -1.16172135	    -15.20281087	     19.01337499	     24.29589102	     85.94366927	      0.00000000	      0.00000000
      3.85000000	      0.20069772	     -2.23130660	      7.23577170	      0.02115936	      0.89207002	     -0.22337024	     27.72494783	      3.72555027	     -8.14005255	    -23.95352067	     -9.24582116	    -11.35464123	      7.92607837	    -13.65957848	     -3.91751046	      2.59708818	    -32.36061897	     -7.55000021	     14.53505898	     29.92785658	     -3.95961766	      4.66275712	     -9.00713891	     -9.62300872	    -15.43019563	     14.54857758	     11.30624485	     86.51662706	      0.00000000	      0.00000000	     -1.53250783	    -14.85101387	     19.02231208	     23.64954140	     85.94366927	      0.00000000	      0.00000000
      3.86000000	      0.25026696	     -2.99808128	      6.98255487	      0.03561908	      0.89225147	     -0.22221133	     27.64634014	      4.80696226	     -7.71764237	    -25.30026311	     -9.16436095	    -11.69164750	      7.60047182	    -12.55439557	     -4.85190717	      2.16310128	    -35.04460109	    -11.19124819	     14.11564148	     30.46979675	     -3.77330373	      5.57161327	     -8.61321357	     -9.49885211	    -15.62533623	     14.58677363	     11.40595282	     86.51662706	      0.00000000	      0.00000000	     -1.87701915	    -14.50489813	     19.06628553	     22.99221152	     85.94366927	      0.00000000	      0.00000000
      3.87000000	      0.30073825	     -3.73069961	      6.73094342	      0.04968299	      0.89252192	     -0.22103189	     27.41949137	      5.85931157	     -7.41557080	    -26.44388145	     -8.59175046	    -11.80411876	      7.24236427	    -11.28587731	     -5.71661759	      1.93338100	    -37.90969054	    -14.68447393	     13.37854568	     30.34335113	     -3.66033992	      6.44094610	     -8.23517792	     -9.30799093	    -15.82626475	     14.57167492	     11.57692184	     86.51662706	      0.00000000	      0.00000000	     -2.19013195	    -14.17376432	     19.16227246	     22.33188235	     85.94366927	      0.00000000	      0.00000000
      3.88000000	      0.36003143	     -4.41908414	      6.51632010	      0.06337565	      0.89298028	     -0.21989304	     27.00007771	      6.84460262	     -7.24842620	    -27.31458435	     -7.63258757	    -11.71664846	      6.84738695	     -9.86180937	     -6.48490825	      1.93437157	    -40.92045368	    -17.79308770	     12.34990778	     29.59740334	     -3.62541659	      7.25545902	     -7.89088042	     -9.06288002	    -16.02684029	     14.50634785	     11.82997997	     86.51662706	      0.00000000	      0.00000000	     -2.46338357	    -13.86467077	     19.32540756	     21.67653680	     85.94366927	      0.00000000	      0.00000000
      3.89000000	      0.44211878	     -5.05411551	      6.37358323	      0.07674771	      0.89370486	     -0.21888270	     26.36377566	      7.73081825	     -7.21289653	    -27.88019972	     -6.41886077	    -11.45662159	      6.41463446	     -8.29276099	     -7.13498433	      2.17338425	    -44.02945955	    -20.29701038	     11.08552649	     28.34174996	     -3.66939900	      8.00524012	     -7.59358678	     -8.77866675	    -16.22240354	     14.39549244	     12.17398274	     86.51662706	      0.00000000	      0.00000000	     -2.68674242	    -13.58311379	     19.56679764	     21.03393491	     85.94366927	      0.00000000	      0.00000000
      3.90000000	      0.55835898	     -5.62076158	      6.32919820	      0.08983505	      0.89475600	     -0.21809384	     25.51034241	      8.49457468	     -7.29298870	    -28.14272104	     -5.08351738	    -11.05529839	      5.94866694	     -6.59821058	     -7.64700239	      2.63780661	    -47.17879670	    -22.02918466	      9.66770022	     26.73209531	     -3.78839239	      8.67929633	     -7.35059773	     -8.47081585	    -16.41003037	     14.24545761	     12.61487950	     86.51662706	      0.00000000	      0.00000000	     -2.85140145	    -13.33423150	     19.89137389	     20.41174926	     85.94366927	      0.00000000	      0.00000000
      3.91000000	      0.71101097	     -6.09859059	      6.39566295	      0.10265462	      0.89617481	     -0.21757972	     24.46078708	      9.12225011	     -7.46687396	    -28.12895561	     -3.73978568	    -10.54795061	      5.46006566	     -4.80595284	     -7.99872771	      3.29663556	    -50.30051559	    -22.90614070	      8.19619575	     24.94765826	     -3.97342931	      9.26157454	     -7.16208232	     -8.15314689	    -16.58817914	     14.06398324	     13.15531569	     86.51662706	      0.00000000	      0.00000000	     -2.95266591	    -13.12367137	     20.29615235	     19.81798022	     85.94366927	      0.00000000	      0.00000000
      3.92000000	      0.89318794	     -6.46765345	      6.56887583	      0.11522563	      0.89794959	     -0.21731795	     23.25054617	      9.60932158	     -7.71197954	    -27.88058036	     -2.46932102	     -9.97235761	      4.96446477	     -2.94553972	     -8.16453532	      4.10468106	    -53.31760972	    -22.94374265	      6.77398531	     23.16601584	     -4.21086756	      9.73129089	     -7.02065861	     -7.83673102	    -16.75615874	     13.85967584	     13.79462966	     86.51662706	      0.00000000	      0.00000000	     -2.99213050	    -12.95747852	     20.76927182	     19.26147158	     85.94366927	      0.00000000	      0.00000000
      3.93000000	      1.09236252	     -6.71358910	      6.82855692	      0.12758015	      0.89999790	     -0.21722799	     21.92275142	      9.95822642	     -8.00651937	    -27.44610545	     -1.31937006	     -9.36601423	      4.48035519	     -1.04269281	     -8.12127594	      5.00888835	    -56.14929744	    -22.25177987	      5.49047524	     21.54045104	     -4.48338723	     10.06703477	     -6.91213672	     -7.52975909	    -16.91387726	     13.64128502	     14.52908054	     86.51662706	      0.00000000	      0.00000000	     -2.97866019	    -12.84101763	     21.29009684	     18.75227361	     85.94366927	      0.00000000	      0.00000000
      3.94000000	      1.29282016	     -6.82930187	      7.14225498	      0.13974551	      0.90220817	     -0.21721798	     20.52288629	     10.17587476	     -8.32793232	    -26.87511675	     -0.30702434	     -8.76295905	      4.02622000	      0.88100004	     -7.85813865	      5.95450660	    -58.72132019	    -21.00743584	      4.40661039	     20.18382928	     -4.77137888	     10.25248460	     -6.81742904	     -7.23805229	    -17.06202880	     13.41689346	     15.35222628	     86.51662706	      0.00000000	      0.00000000	     -2.92796311	    -12.77747450	     21.83049476	     18.30161278	     85.94366927	      0.00000000	      0.00000000
      3.95000000	      1.47710445	     -6.81515971	      7.47236484	      0.15174354	      0.90449641	     -0.21721738	     19.09402596	     10.27232290	     -8.65030251	    -26.21405131	      0.57242798	     -8.19110273	      3.61766501	      2.80595285	     -7.38360971	      6.88871270	    -60.97649774	    -19.41531475	      3.54611686	     19.16061899	     -5.05455515	     10.28111435	     -6.71523753	     -6.96566929	    -17.20247383	     13.19314622	     16.25543281	     86.51662706	      0.00000000	      0.00000000	     -2.86075504	    -12.76658695	     22.35716915	     17.92133071	     85.94366927	      0.00000000	      0.00000000
